<svg width="121" height="61" viewBox="0 0 121 61" fill="none" xmlns="http://www.w3.org/2000/svg">
<g clip-path="url(#clip0_247_4308)">
<path d="M114.06 46.8056V26.1205C114.06 22.8488 111.143 20.0521 107.856 20.2104C104.78 20.3687 102.235 23.0599 102.235 26.1205V46.7528H96.2429C96.2429 39.9985 96.455 33.1914 96.2429 26.4371C96.1899 24.2735 95.3415 22.2683 93.4325 21.1075C91.7357 20.0521 89.4555 19.9465 87.6526 20.8436C85.6907 21.8462 84.3651 23.9569 84.3651 26.1732V46.8056H78.373V14.2476H78.4261L81.3426 18.0997L82.4561 17.2026C83.5697 16.2528 84.7892 15.514 86.115 15.0391C87.4406 14.5114 88.8193 14.3004 90.251 14.3004C91.6827 14.3004 93.1144 14.5641 94.4931 15.0919C95.8187 15.6196 96.9853 16.5166 97.9928 17.783L99.2124 19.3134L100.379 17.7303C100.856 17.0971 101.333 16.5693 101.917 16.1472C102.5 15.7251 103.136 15.3557 103.826 15.0391C104.515 14.7752 105.204 14.5641 105.894 14.4586C106.636 14.3531 107.378 14.2476 108.121 14.2476C109.765 14.2476 111.302 14.5641 112.734 15.1446C114.166 15.7778 115.438 16.6222 116.499 17.6775C117.559 18.7329 118.408 19.9994 119.044 21.4768C119.68 22.9015 119.946 24.4846 119.946 26.1205V46.7528H114.06V46.8056Z" fill="#C3002F"/>
<path d="M26.5661 0V40.7897H16.7033C10.8173 40.7897 5.99196 36.0406 5.99196 30.1306C5.99196 24.2205 10.7643 19.4714 16.7033 19.4714C19.3016 19.4714 21.6347 20.6851 23.4906 22.2153V15.3555C21.4226 14.4058 19.0894 13.6142 16.7033 13.6142C7.47669 13.5614 0 21.0017 0 30.1834C0 39.365 7.47669 46.8053 16.7033 46.8053H26.5661H31.6036H32.558V0H26.5661Z" fill="#C3002F"/>
<path d="M45.7087 61.0002V20.2104H55.5716C61.4576 20.2104 66.2829 24.9595 66.2829 30.8696C66.2829 36.7796 61.5106 41.5287 55.5716 41.5287C52.9734 41.5287 50.6402 40.3151 48.7842 38.7848V45.7502C50.8523 46.7 53.1854 47.4915 55.5716 47.4915C64.7981 47.4915 72.2748 40.0512 72.2748 30.8696C72.2748 21.6878 64.7981 14.2476 55.5716 14.2476H45.7087H40.6712H39.7168V61.0002H45.7087Z" fill="#C3002F"/>
</g>
<defs>
<clipPath id="clip0_247_4308">
<rect width="121" height="61" fill="white"/>
</clipPath>
</defs>
</svg>
