<svg width="189" height="73" viewBox="0 0 189 73" fill="none" xmlns="http://www.w3.org/2000/svg">
<g clip-path="url(#clip0_247_4301)">
<mask id="mask0_247_4301" style="mask-type:luminance" maskUnits="userSpaceOnUse" x="0" y="0" width="189" height="73">
<path d="M189 0H0V73H189V0Z" fill="white"/>
</mask>
<g mask="url(#mask0_247_4301)">
<path d="M165.832 47.5189H160.81V72.4261H166.745V62.3255C166.745 61.2925 166.745 60.1447 166.859 58.8821C166.973 57.6195 167.201 56.5865 167.543 55.6682C168 54.75 168.457 53.9465 169.255 53.3726C169.94 52.7987 170.853 52.4544 171.88 52.4544C173.478 52.4544 174.505 52.9135 175.076 53.717C175.647 54.5204 175.989 55.6682 175.989 57.1604V72.4261H181.924V55.783C181.924 54.5204 181.696 53.3726 181.353 52.2248C181.011 51.077 180.44 50.1588 179.755 49.3553C179.071 48.5519 178.158 47.978 177.13 47.5189C176.103 47.0598 174.962 46.8302 173.592 46.8302C172.109 46.8302 170.739 47.1745 169.37 47.7484C168 48.3223 166.973 49.3553 166.288 50.6179L165.832 47.5189ZM70.4185 47.5189H65.3967V72.4261H71.3315V62.3255C71.3315 61.2925 71.3315 60.1447 71.4456 58.8821C71.5598 57.6195 71.788 56.5865 72.1304 55.6682C72.587 54.75 73.0435 53.9465 73.8424 53.3726C74.5272 52.7987 75.4402 52.4544 76.4674 52.4544C78.0652 52.4544 79.0924 52.9135 79.663 53.717C80.2337 54.5204 80.5761 55.6682 80.5761 57.1604V72.4261H86.5109V55.783C86.5109 54.5204 86.2826 53.3726 85.9402 52.2248C85.5978 51.077 85.0272 50.1588 84.3424 49.3553C83.6576 48.5519 82.7446 47.978 81.7174 47.5189C80.6902 47.0598 79.5489 46.8302 78.1793 46.8302C76.6956 46.8302 75.3261 47.1745 73.9565 47.7484C72.587 48.3223 71.5598 49.3553 70.875 50.6179L70.4185 47.5189ZM44.9674 65.0802C44.9674 64.0472 45.3098 63.2437 46.1087 62.7846C46.7935 62.2107 47.7065 61.9811 48.6196 61.8664L54.8967 61.4072V62.555C54.8967 64.3915 54.3261 65.7689 53.1848 66.8019C52.0435 67.7201 50.4456 68.294 48.6196 68.294C47.7065 68.294 46.9076 68.0645 46.2228 67.4906C45.3098 66.8019 44.9674 65.9984 44.9674 65.0802ZM39.8315 62.0959C39.375 63.0142 39.1467 64.0472 39.1467 65.3098C39.1467 66.3428 39.375 67.261 39.7174 68.294C40.0598 69.2123 40.6304 70.0157 41.4293 70.8192C42.2283 71.6226 43.1413 72.0818 44.1685 72.5409C45.3098 73 46.5652 73.2296 48.0489 73.2296C49.875 73.2296 51.3587 72.8852 52.7283 72.0818C54.0978 71.3931 55.0109 70.4748 55.5815 69.4418C55.6956 70.3601 56.038 71.1635 56.7228 71.8522C57.4076 72.5409 58.4348 72.8852 59.6902 72.8852C60.375 72.8852 60.9456 72.8852 61.288 72.7704C61.6304 72.6557 62.087 72.5409 62.5435 72.3113V67.7201C62.4293 67.7201 62.4293 67.7201 62.3152 67.7201C62.2011 67.7201 62.0869 67.7201 61.7446 67.7201C61.288 67.7201 60.8315 67.6053 60.7174 67.3758C60.4891 67.1462 60.375 66.6871 60.375 66.1132V56.816C60.375 56.0126 60.375 55.0943 60.2609 54.2909C60.1467 53.3726 60.0326 52.5692 59.6902 51.7657C59.0054 49.9292 57.75 48.5519 56.038 47.8632C54.3261 47.0597 52.5 46.7154 50.3315 46.7154C48.962 46.7154 47.5924 46.8302 46.4511 47.1745C45.1956 47.5189 44.1685 47.978 43.2554 48.6667C42.3424 49.3554 41.5435 50.1588 41.087 51.1918C40.5163 52.2248 40.1739 53.3726 40.0598 54.8648H45.8804C45.9946 53.717 46.337 52.7987 47.1359 52.2248C47.9348 51.6509 48.962 51.3066 50.4456 51.3066C52.1576 51.3066 53.2989 51.6509 53.7554 52.3396C54.3261 53.0283 54.5543 54.0613 54.5543 55.2091V56.7013L47.5924 57.3899C46.4511 57.5047 45.3098 57.7343 44.2826 58.0786C43.2554 58.423 42.3424 58.9969 41.6576 59.6855C40.8587 60.3742 40.288 61.1777 39.8315 62.0959ZM7.98913 12.6258C7.30435 12.0519 7.07609 11.1336 7.07609 10.1006C7.07609 9.41195 7.19022 8.95283 7.41848 8.49371C7.53261 8.03459 7.875 7.57547 8.21739 7.23113C8.90217 6.54245 9.70109 5.96855 10.7283 5.73899C11.7554 5.50943 12.6685 5.39465 13.6957 5.39465C14.6087 5.39465 15.5217 5.50943 16.5489 5.85377C17.5761 6.19811 18.2609 6.65723 18.8315 7.23113C19.288 7.69025 19.6304 8.14937 19.8587 8.83805C20.087 9.41195 20.3152 9.98585 20.3152 10.6745H26.5924C26.5924 9.18239 26.25 7.91981 25.5652 6.65723C24.9946 5.39465 24.0815 4.36164 23.1685 3.4434C22.0272 2.41038 20.6576 1.49214 18.9457 1.03302C17.2337 0.22956 15.5217 0 13.6957 0C11.6413 0 9.81522 0.34434 8.10326 0.918239C6.3913 1.60692 4.90761 2.52516 3.7663 3.55818C2.96739 4.47642 2.16848 5.50943 1.71196 6.65723C1.1413 7.69025 0.913043 8.95283 0.913043 10.3302C0.913043 11.7075 1.1413 12.9701 1.59783 14.1179C2.05435 15.2657 2.625 16.184 3.42391 16.9874C4.22283 17.7909 5.13587 18.3648 6.16304 18.8239C7.19022 19.283 8.33152 19.6274 9.47283 19.8569C10.6141 20.0865 11.8696 20.2013 13.2391 20.316C14.6087 20.4308 15.8641 20.5456 17.0054 20.7752C18.0326 21.0047 18.9457 21.3491 19.7446 22.0377C20.5435 22.6116 21 23.6447 21 24.7925C21 25.5959 20.8859 26.2846 20.6576 26.7437C20.4293 27.2028 20.087 27.6619 19.7446 28.0063C19.0598 28.695 18.2609 29.1541 17.2337 29.3836C15.9783 29.6132 14.837 29.8428 13.6957 29.8428C12.6685 29.8428 11.7554 29.728 10.7283 29.4984C9.70109 29.2689 8.78804 28.8097 8.10326 28.0063C7.64674 27.5472 7.19022 26.8585 6.84783 26.1698C6.50543 25.4811 6.3913 24.6777 6.3913 23.8742H0C0 25.4811 0.342391 26.9733 1.02717 28.3506C1.71196 29.728 2.51087 30.8758 3.53804 31.794C4.90761 33.0566 6.50543 33.9748 8.33152 34.5487C10.0435 35.1226 11.8696 35.3522 13.6957 35.3522C15.75 35.3522 17.8043 35.1226 19.6304 34.5487C21.4565 33.9748 23.0543 33.0566 24.4239 31.794C25.2228 30.9906 25.9076 29.9575 26.4783 28.8097C27.0489 27.662 27.2772 26.2846 27.2772 24.6777C27.2772 23.1855 27.0489 21.923 26.5924 20.7752C26.1359 19.6274 25.4511 18.5943 24.538 17.7909C23.7391 16.9874 22.712 16.2987 21.5707 15.8396C20.4293 15.3805 19.288 15.0362 18.0326 14.8066C16.8913 14.6918 15.6359 14.4623 14.3804 14.3475C13.0109 14.2327 11.8696 14.1179 10.7283 13.8884C9.47283 13.6588 8.67391 13.3145 7.98913 12.6258ZM36.4076 38.4513H28.5326L19.6304 62.6698L10.8424 38.4513H2.51087V72.4261H8.44565V47.8632L17.1196 71.8522H21.6848L30.4728 48.2076V72.4261H36.4076V38.4513ZM45.3098 19.6274H34.5815C34.5815 18.8239 34.6956 18.1352 34.9239 17.4465C35.1522 16.8726 35.3804 16.2987 35.837 15.7248C36.2935 15.1509 36.8641 14.6918 37.5489 14.3475C38.2337 14.0031 39.0326 13.7736 39.9456 13.7736C40.8587 13.7736 41.5435 13.8884 42.1141 14.1179C42.6848 14.3475 43.2554 14.6918 43.712 15.1509C44.7391 16.4135 45.3098 17.7909 45.3098 19.6274ZM51.2446 22.956C51.2446 22.7264 51.2446 22.6116 51.2446 22.3821C51.2446 20.7752 51.1304 19.283 50.9022 17.9057C50.6739 16.5283 50.1033 15.0362 49.1902 13.6588C48.163 12.0519 46.9076 10.9041 45.3098 10.2154C43.712 9.41195 42 9.06761 40.1739 9.06761C38.462 9.06761 36.9783 9.41195 35.6087 9.98585C34.2391 10.5597 33.212 11.3632 32.2989 12.2814C31.0435 13.544 30.2446 14.9214 29.5598 16.6431C28.9891 18.3648 28.6467 20.2013 28.6467 22.2673C28.6467 24.3333 28.9891 26.1698 29.6739 27.8915C30.3587 29.6132 31.2717 30.9906 32.5272 32.2531C33.5543 33.1714 34.5815 33.9748 35.837 34.434C37.0924 35.0079 38.5761 35.2374 40.288 35.2374C41.8859 35.2374 43.3696 35.0079 44.8533 34.434C46.337 33.8601 47.5924 32.9418 48.6196 31.794C49.0761 31.2201 49.5326 30.5314 49.9891 29.6132C50.4456 28.695 50.6739 27.8915 50.6739 27.2028H44.9674C44.7391 28.0063 44.3967 28.695 43.8261 29.2689C43.3696 29.728 42.913 30.0723 42.3424 30.1871C41.7717 30.4167 41.087 30.4167 40.1739 30.4167C39.375 30.4167 38.6902 30.3019 38.0054 29.9575C37.4348 29.6132 36.8641 29.2689 36.4076 28.9245C35.837 28.3506 35.3804 27.6619 35.038 26.7437C34.6957 25.8255 34.5815 25.022 34.5815 23.989H51.1304V22.956H51.2446ZM52.3859 42.239C51.7011 42.9277 50.3315 43.3868 48.8478 42.3538C47.7065 40.8616 48.163 39.4843 48.962 38.7956C49.6467 38.1069 51.0163 37.6478 52.5 38.6808L52.6141 38.7956C53.5272 40.173 53.0706 41.5503 52.3859 42.239ZM53.6413 37.7626L53.2989 37.4182C51.2446 35.9261 49.0761 36.3852 47.8206 37.6478C46.5652 38.9104 46.1087 40.9764 47.5924 43.1572C47.7065 43.272 47.8206 43.3868 47.9348 43.5016C48.8478 44.1903 49.7609 44.4198 50.5598 44.4198C51.7011 44.4198 52.6141 43.9607 53.2989 43.272C54.5543 42.0094 55.125 39.9434 53.6413 37.7626ZM83.4293 34.5487H89.3641V17.7909C89.3641 15.1509 88.6793 13.0849 87.3098 11.478C85.9402 9.87107 84 9.06761 81.2609 9.06761C79.5489 9.06761 78.0652 9.41195 76.8098 10.1006C75.5543 10.7893 74.5272 11.8223 73.8424 13.0849C73.1576 11.8223 72.2446 10.7893 71.1033 10.1006C69.962 9.41195 68.4783 9.06761 66.7663 9.06761C65.1685 9.06761 63.6848 9.41195 62.5435 10.2154C61.4022 10.9041 60.375 11.9371 59.6902 13.0849L59.2337 9.75629H54.3261V34.6635H60.2609V21.0047C60.2609 20.2013 60.375 19.5126 60.6033 18.7091C60.8315 17.9057 61.0598 17.217 61.5163 16.5283C61.9728 15.8396 62.4293 15.3805 63 14.9214C63.5706 14.577 64.3696 14.3475 65.1685 14.3475C66.6522 14.3475 67.6793 14.8066 68.1359 15.6101C68.7065 16.4135 68.9348 17.6761 68.9348 19.1682V34.6635H74.8696V21.0047C74.8696 20.2013 74.9837 19.5126 75.212 18.7091C75.4402 17.9057 75.6685 17.217 76.125 16.5283C76.4674 15.8396 77.038 15.3805 77.6087 14.9214C78.1793 14.577 78.9783 14.3475 79.7772 14.3475C81.2609 14.3475 82.288 14.8066 82.7446 15.6101C83.3152 16.4135 83.5435 17.6761 83.5435 19.1682V34.5487H83.4293ZM95.5272 47.5189C94.2717 47.978 93.1304 48.5519 92.2174 49.3553C91.5326 50.044 90.8478 50.7327 90.3913 51.6509C89.9348 52.5692 89.7065 53.6022 89.7065 54.9796C89.7065 55.783 89.8206 56.5865 90.163 57.2752C90.3913 57.9638 90.8478 58.6525 91.3043 59.2264C91.7609 59.8003 92.4456 60.3742 93.1304 60.7186C93.8152 61.1777 94.6141 61.4072 95.413 61.6368C96.5543 61.8664 97.6956 62.0959 98.8369 62.2107C99.9782 62.3255 101.12 62.4403 102.261 62.6698C103.06 62.7846 103.63 63.1289 104.087 63.5881C104.543 64.0472 104.772 64.6211 104.772 65.3098C104.772 65.9984 104.658 66.5723 104.315 66.9167C103.973 67.3758 103.516 67.6053 103.06 67.8349C102.603 68.0645 102.033 68.1792 101.462 68.294C100.891 68.4088 100.321 68.4088 99.8641 68.4088C98.9511 68.4088 98.2663 68.294 97.6956 68.1793C97.125 67.9497 96.5543 67.7201 96.0978 67.3758C95.7554 67.0314 95.413 66.5723 95.1848 66.1132C94.9565 65.5393 94.8424 65.0802 94.8424 64.5063H89.0217C89.0217 65.6541 89.25 66.8019 89.8206 67.7201C90.2772 68.7531 90.962 69.5566 91.6467 70.2453C92.6739 71.2783 93.8152 71.967 95.1848 72.4261C96.5543 72.8852 98.038 73.1148 99.6359 73.1148C101.348 73.1148 102.946 72.8852 104.429 72.4261C105.913 71.967 107.168 71.2783 108.196 70.2453C108.88 69.5566 109.337 68.8679 109.793 67.9497C110.136 67.0314 110.364 65.9984 110.364 64.7359C110.364 62.7846 109.679 61.1777 108.424 59.9151C107.168 58.7673 105.571 57.9638 103.516 57.6195C102.946 57.5047 102.375 57.3899 102.033 57.3899C101.576 57.2752 101.234 57.2752 100.891 57.2752C100.549 57.2752 100.092 57.1604 99.75 57.1604C99.4076 57.1604 98.8369 57.0456 98.2663 57.0456C97.5815 56.9308 97.0109 56.7013 96.3261 56.3569C95.7554 56.0126 95.413 55.4387 95.413 54.5204C95.413 53.8318 95.6413 53.3726 95.9837 52.9135C96.3261 52.4544 96.7826 52.1101 97.3533 51.8805C97.8098 51.6509 98.2663 51.5362 98.6087 51.5362C99.0652 51.5362 99.4076 51.5362 99.8641 51.5362C100.549 51.5362 101.12 51.6509 101.69 51.8805C102.261 52.1101 102.717 52.3396 103.06 52.684C103.402 53.0283 103.63 53.3726 103.745 53.717C103.973 54.0613 104.087 54.5204 104.087 54.9796H109.793C109.793 54.0613 109.565 53.1431 109.223 52.2248C108.88 51.3066 108.31 50.5031 107.625 49.8145C106.712 48.7814 105.571 48.0928 104.201 47.6336C102.832 47.1745 101.348 46.945 99.8641 46.945C98.2663 46.945 96.7826 47.0598 95.5272 47.5189ZM105 15.0362C105.685 15.0362 106.37 15.1509 107.054 15.2657V9.52673C106.37 9.41195 105.799 9.41195 105.228 9.41195C103.745 9.41195 102.375 9.75629 101.005 10.3302C99.6359 11.0189 98.7228 12.0519 98.1522 13.4292L97.5815 9.64151H92.5598V34.5487H98.6087V22.0377C98.6087 19.9717 99.1793 18.3648 100.207 16.9874C101.234 15.6101 102.832 15.0362 105 15.0362ZM122.234 1.37736L121.777 0.688679C121.549 0.34434 120.978 0.22956 120.636 0.45912L114.359 5.05031C114.016 5.27987 113.902 5.73899 114.13 6.08333C114.359 6.42767 114.815 6.54245 115.158 6.31289L121.777 2.41038C122.348 2.2956 122.576 1.7217 122.234 1.37736ZM124.174 19.6274H113.446C113.446 18.8239 113.56 18.1352 113.788 17.4465C114.016 16.8726 114.245 16.2987 114.701 15.7248C115.158 15.1509 115.728 14.6918 116.413 14.3475C117.098 14.0031 117.897 13.7736 118.81 13.7736C119.723 13.7736 120.408 13.8884 120.978 14.1179C121.549 14.3475 122.12 14.6918 122.576 15.1509C123.717 16.4135 124.174 17.7909 124.174 19.6274ZM130.109 22.956C130.109 22.7264 130.109 22.6116 130.109 22.3821C130.109 20.7752 129.995 19.283 129.766 17.9057C129.538 16.5283 128.967 15.0362 128.054 13.6588C127.027 12.0519 125.772 10.9041 124.174 10.2154C122.576 9.41195 120.864 9.06761 119.038 9.06761C117.326 9.06761 115.842 9.41195 114.473 9.98585C113.103 10.5597 112.076 11.3632 111.163 12.2814C109.908 13.544 109.109 14.9214 108.424 16.6431C107.853 18.3648 107.511 20.2013 107.511 22.2673C107.511 24.3333 107.853 26.1698 108.538 27.8915C109.223 29.6132 110.136 30.9906 111.391 32.2531C112.418 33.1714 113.446 33.9748 114.701 34.434C115.957 35.0079 117.44 35.2374 119.152 35.2374C120.75 35.2374 122.234 35.0079 123.717 34.434C125.201 33.8601 126.457 32.9418 127.484 31.794C127.94 31.2201 128.397 30.5314 128.853 29.6132C129.31 28.695 129.538 27.8915 129.538 27.2028H123.832C123.603 28.0063 123.261 28.695 122.69 29.2689C122.234 29.728 121.777 30.0723 121.207 30.1871C120.636 30.4167 119.951 30.4167 119.038 30.4167C118.239 30.4167 117.554 30.3019 116.87 29.9575C116.299 29.6132 115.728 29.2689 115.272 28.9245C114.701 28.3506 114.245 27.6619 113.902 26.7437C113.56 25.8255 113.446 25.022 113.446 23.989H130.109V22.956ZM118.125 54.4057C118.125 53.717 118.353 53.2579 118.696 52.7987C119.038 52.3396 119.495 51.9953 120.065 51.7657C120.522 51.5362 120.978 51.4214 121.321 51.4214C121.777 51.4214 122.12 51.4214 122.576 51.4214C123.261 51.4214 123.832 51.5362 124.402 51.7657C124.973 51.9953 125.429 52.2248 125.772 52.5692C126.114 52.9135 126.342 53.2579 126.457 53.6022C126.685 53.9465 126.799 54.4057 126.799 54.8648H132.505C132.505 53.9465 132.277 53.0283 131.935 52.1101C131.592 51.1918 131.022 50.3884 130.337 49.6997C129.424 48.6667 128.283 47.978 126.913 47.5189C125.543 47.0598 124.06 46.8302 122.576 46.8302C120.978 46.8302 119.609 47.0598 118.353 47.5189C117.098 47.978 115.957 48.5519 115.043 49.3553C114.359 50.044 113.674 50.7327 113.217 51.6509C112.761 52.5692 112.533 53.6022 112.533 54.9796C112.533 55.783 112.647 56.5865 112.989 57.2752C113.217 57.9638 113.674 58.6525 114.13 59.2264C114.587 59.8003 115.272 60.3742 115.957 60.7186C116.641 61.1777 117.44 61.4072 118.239 61.6368C119.38 61.8664 120.522 62.0959 121.663 62.2107C122.804 62.3255 123.946 62.4403 125.087 62.6698C125.886 62.7846 126.457 63.1289 126.913 63.5881C127.37 64.0472 127.598 64.6211 127.598 65.3098C127.598 65.9984 127.484 66.5723 127.141 66.9167C126.799 67.3758 126.342 67.6053 125.886 67.8349C125.429 68.0645 124.859 68.1792 124.288 68.294C123.717 68.4088 123.147 68.4088 122.69 68.4088C121.777 68.4088 121.092 68.294 120.522 68.1793C119.951 67.9497 119.38 67.7201 118.924 67.3758C118.582 67.0314 118.239 66.5723 118.011 66.1132C117.783 65.5393 117.668 65.0802 117.668 64.5063H111.848C111.848 65.6541 112.076 66.8019 112.647 67.7201C113.103 68.7531 113.788 69.5566 114.473 70.2453C115.5 71.2783 116.641 71.967 118.011 72.4261C119.38 72.8852 120.864 73.1148 122.462 73.1148C124.174 73.1148 125.772 72.8852 127.255 72.4261C128.739 71.967 129.995 71.2783 131.022 70.2453C131.707 69.5566 132.163 68.8679 132.62 67.9497C132.962 67.0314 133.19 65.9984 133.19 64.7359C133.19 62.7846 132.505 61.1777 131.25 59.9151C129.995 58.6525 128.397 57.9638 126.342 57.6195C125.772 57.5047 125.201 57.3899 124.859 57.3899C124.402 57.2752 124.06 57.2752 123.717 57.2752C123.375 57.2752 122.918 57.1604 122.576 57.1604C122.234 57.1604 121.663 57.0456 121.092 57.0456C120.408 56.9308 119.837 56.7013 119.152 56.3569C118.467 56.0126 118.125 55.3239 118.125 54.4057ZM148.255 34.5487H154.19V17.9057C154.19 16.6431 153.962 15.4953 153.62 14.3475C153.277 13.1997 152.707 12.2814 152.022 11.478C151.337 10.6745 150.424 10.1006 149.397 9.64151C148.37 9.18239 147.228 8.95283 145.859 8.95283C144.375 8.95283 143.005 9.29717 141.636 9.87107C140.266 10.445 139.239 11.478 138.554 12.7406L138.098 9.52673H133.076V34.434H139.011V24.3333C139.011 23.3003 139.011 22.1525 139.125 20.8899C139.239 19.6274 139.467 18.5943 139.81 17.6761C140.152 16.7579 140.723 15.9544 141.522 15.3805C142.207 14.8066 143.12 14.4623 144.147 14.4623C145.745 14.4623 146.772 14.9214 147.342 15.7248C147.913 16.5283 148.255 17.6761 148.255 19.1682V34.5487ZM151.679 59.9151C151.679 61.0629 151.565 62.2107 151.337 63.3585C151.109 64.5063 150.652 65.4245 149.853 66.228C149.397 66.6871 148.94 67.0314 148.255 67.3758C147.571 67.7201 146.886 67.8349 146.087 67.8349C145.288 67.8349 144.489 67.7201 143.918 67.3758C143.234 67.0314 142.777 66.6871 142.321 66.228C141.636 65.4245 141.065 64.5063 140.837 63.3585C140.609 62.2107 140.495 61.0629 140.495 59.9151C140.495 58.7673 140.609 57.6195 140.837 56.4717C141.065 55.3239 141.522 54.4057 142.321 53.6022C142.777 53.1431 143.234 52.7987 143.918 52.4544C144.603 52.1101 145.288 51.9953 146.087 51.9953C146.886 51.9953 147.685 52.1101 148.255 52.4544C148.94 52.7987 149.397 53.1431 149.853 53.6022C150.538 54.4057 151.109 55.3239 151.337 56.4717C151.565 57.6195 151.679 58.7673 151.679 59.9151ZM156.929 65.3098C157.386 63.9324 157.728 62.0959 157.728 60.0299C157.728 57.9638 157.5 56.1274 156.929 54.75C156.473 53.3726 155.674 51.9953 154.761 50.8475C153.848 49.8145 152.707 48.8962 151.223 48.0928C149.739 47.2893 148.027 46.945 146.087 46.945C144.147 46.945 142.435 47.2893 140.951 48.0928C139.467 48.8962 138.212 49.8145 137.413 50.8475C136.5 51.9953 135.815 53.3726 135.245 54.75C134.788 56.1274 134.446 57.9638 134.446 60.0299C134.446 62.0959 134.674 63.9324 135.245 65.3098C135.701 66.6871 136.5 68.0645 137.413 69.2123C138.326 70.2453 139.467 71.1635 140.951 71.967C142.435 72.7704 144.147 73.1148 146.087 73.1148C148.027 73.1148 149.739 72.7704 151.223 71.967C152.707 71.1635 153.962 70.2453 154.761 69.2123C155.674 67.9497 156.473 66.6871 156.929 65.3098ZM189 20.0865V17.6761H175.19V3.78774H172.793V17.6761H158.984V20.0865H172.793V33.9748H175.19V20.0865H189Z" fill="#1F4396"/>
</g>
</g>
<defs>
<clipPath id="clip0_247_4301">
<rect width="189" height="73" fill="white"/>
</clipPath>
</defs>
</svg>
