<svg width="32" height="32" viewBox="0 0 32 32" fill="none" xmlns="http://www.w3.org/2000/svg">
<path d="M28.8268 6.9999C28.5468 8.81321 26.6535 21.1332 26.0402 24.9999C26.0413 25.2894 25.9682 25.5743 25.8279 25.8275C25.6876 26.0807 25.4847 26.2937 25.2387 26.4462C24.9926 26.5986 24.7115 26.6855 24.4224 26.6984C24.1332 26.7113 23.8455 26.6499 23.5868 26.5199C22.7814 26.2373 22.0222 25.8374 21.3335 25.3332C19.2135 23.9199 17.0535 22.5732 15.0535 20.9999C14.0935 20.2399 14.0802 19.5332 15.0535 18.6932C17.3789 16.5726 19.6594 14.4032 21.8935 12.1866C22.1868 11.8932 22.8535 11.2399 22.4802 10.8532C22.1068 10.4666 21.3335 11.0132 20.9602 11.2666C17.8402 13.3466 14.6935 15.4132 11.6268 17.5466C11.1156 17.932 10.5174 18.1859 9.88505 18.2859C9.25265 18.3859 8.60537 18.3289 8.00017 18.1199C6.53349 17.6799 5.08017 17.1999 3.64017 16.7199C3.05349 16.5332 1.5068 15.9066 4.37349 14.7332C11.6935 11.6932 19.1602 8.6399 26.5068 5.61321C28.2935 4.93321 29.0402 5.53321 28.8268 6.9999Z" fill="currentColor"/>
</svg>
