<svg width="68" height="68" viewBox="0 0 68 68" fill="none" xmlns="http://www.w3.org/2000/svg">
<path d="M36.5074 9.061C36.436 9.0253 29.3623 5.6661 23.7336 5.2377C17.8176 4.777 11.8897 7.9169 11.8285 7.9509L11.0278 6.4498C11.2862 6.3121 17.4538 3.0634 23.8628 3.5411C29.8111 3.9967 36.9392 7.3848 37.2401 7.5276L36.5074 9.061Z" fill="#F9A670"/>
<path d="M30.5268 12.4049L29.7822 10.8766L35.6132 8.03419L31.846 2.85769L33.2213 1.85809L38.1802 8.67169L30.5268 12.4049Z" fill="#F9A670"/>
<path d="M5.13895 16.8538L4.40625 15.3204C4.70715 15.1776 11.8352 11.7895 17.7852 11.3339C24.1739 10.8681 30.3601 14.1049 30.6185 14.2426L29.8179 15.7437C29.7584 15.7114 23.8118 12.5698 17.9145 13.0305C12.2858 13.4589 5.21035 16.8198 5.13895 16.8538Z" fill="#F9A670"/>
<path d="M11.1214 20.1977L3.46631 16.4645L8.42521 9.65091L9.80051 10.6505L6.03331 15.827L11.8643 18.6694L11.1214 20.1977Z" fill="#F9A670"/>
<path d="M43.0747 67.0446C40.9106 67.0446 38.7159 66.81 36.7303 66.368C33.3422 65.6132 26.2141 60.1749 24.7062 58.6126C23.3428 57.1999 19.6912 51.7769 19.1557 47.3654C18.9211 45.4444 20.395 39.7205 22.1987 37.6839C22.5557 37.2838 22.9251 37.0169 23.3071 36.8832L23.0742 36.3596C21.9012 33.8062 20.1638 30.8567 18.6304 28.2523C16.0345 23.8425 15.0672 22.0813 15.2304 21.0783C15.5041 19.3783 16.8981 17.4165 18.7545 17.0731L19.0826 17.0068C19.561 16.8907 20.0507 16.8268 20.5429 16.8164C22.163 16.8164 23.6471 17.7412 25.2162 19.7251C26.5745 21.4438 28.7743 26.1885 30.6256 30.481C30.5406 29.3998 30.5729 28.4971 30.8007 27.9701C31.7187 25.84 34.2789 25.0019 35.0592 24.9526L35.2513 24.9475C35.746 24.9475 38.2773 25.0716 39.4503 27.5332C39.6373 27.9276 39.8158 28.3526 39.9807 28.7827C40.1915 28.0517 40.4907 27.4142 40.9174 27.0504C42.2298 25.9352 44.0267 25.3572 45.249 25.7006C46.5631 26.0695 47.6698 27.4601 48.0693 29.2502C48.241 28.8626 48.4484 28.5481 48.6932 28.3645C49.8815 27.4737 51.9487 27.3785 53.2577 28.2863C54.8557 29.3947 58.5311 36.0349 59.1771 41.8421C59.7058 46.6157 60.3025 55.1463 58.3322 58.6619C56.2854 62.3084 52.0983 65.1406 49.074 66.2269C47.6018 66.7522 45.4717 67.0446 43.0747 67.0446ZM23.9157 38.5186C22.7869 38.6308 20.5752 44.9548 20.8421 47.1563C21.3215 51.1139 24.7198 56.1765 25.9302 57.4311C27.3701 58.9237 34.1871 64.0577 37.0975 64.7054C38.9658 65.1219 41.0296 65.3429 43.073 65.3429C45.2473 65.3429 47.2227 65.0794 48.4943 64.6204C50.7808 63.7993 54.888 61.3122 56.8447 57.8221C58.1163 55.5594 58.3492 49.7998 57.4839 42.0257C56.8702 36.4871 53.2883 30.3739 52.287 29.6769C51.4829 29.121 50.1433 29.393 49.7098 29.7194C49.4701 29.9931 49.1148 31.5945 48.9771 33.1194L48.5504 37.8233L47.3111 33.2656C47.3111 33.2656 46.7603 31.2426 46.4135 29.6395C46.1177 28.2846 45.3629 27.4924 44.7866 27.3326C44.1525 27.1524 42.8792 27.6063 42.0173 28.3407C41.5481 28.7402 41.1996 31.0488 41.1843 32.8678L41.1197 39.9347L39.5064 33.0531C39.4996 33.0225 38.8247 30.158 37.9152 28.2591C37.1808 26.7189 35.5658 26.6407 35.2513 26.6407C34.7566 26.6747 32.9461 27.2833 32.3613 28.6382C31.9533 29.5885 32.8781 34.5474 33.9678 38.5951L32.3562 39.1255C32.3001 38.9776 26.3756 23.9241 23.8851 20.774C22.2837 18.7476 21.2127 18.513 20.5463 18.513C20.1723 18.513 19.8119 18.5878 19.4328 18.6677L19.0673 18.7408C18.1119 18.9176 17.1072 20.1365 16.9083 21.3486C16.9236 21.998 18.6831 24.9866 20.0975 27.3887C21.6496 30.0271 23.4108 33.0174 24.6195 35.6473C24.9266 36.3171 25.2122 37.0084 25.4763 37.7213L25.4797 37.7332C27.3242 40.2747 28.2422 48.6336 28.3425 49.5941L26.6544 49.7896C26.6476 49.7301 25.869 43.7767 23.982 38.5815L23.9157 38.5186Z" fill="#F9A670"/>
</svg>
