<svg width="194" height="32" viewBox="0 0 194 32" fill="none" xmlns="http://www.w3.org/2000/svg">
<path d="M0 3.04762C0.553568 3.07435 1.27848 3.10109 2.17473 3.12782C3.07099 3.15455 3.95406 3.16792 4.82395 3.16792C6.06289 3.16792 7.24911 3.15455 8.3826 3.12782C9.5161 3.10109 10.3201 3.08772 10.7946 3.08772C13.5624 3.08772 15.6449 3.67586 17.042 4.85213C18.4391 6.0284 19.1376 7.53885 19.1376 9.38346C19.1376 10.3191 18.9399 11.2414 18.5445 12.1504C18.1755 13.0326 17.5428 13.848 16.6466 14.5965C15.7767 15.3183 14.6037 15.9064 13.1275 16.3609V16.4411C15.2099 16.7084 16.8311 17.2164 17.991 17.9649C19.1772 18.6867 20.0075 19.5422 20.482 20.5313C20.9565 21.5205 21.1938 22.5631 21.1938 23.6591C21.1938 25.183 20.8115 26.533 20.0471 27.7093C19.309 28.8588 18.2282 29.7678 16.8047 30.4361C15.3813 31.1044 13.681 31.4386 11.704 31.4386C11.1241 31.4386 10.2542 31.4252 9.09434 31.3985C7.93448 31.345 6.53738 31.3183 4.90303 31.3183C3.98042 31.3183 3.07099 31.3317 2.17473 31.3584C1.27848 31.3584 0.553568 31.3851 0 31.4386V30.6366C0.896253 30.5831 1.56844 30.4762 2.01657 30.3158C2.49106 30.1554 2.80738 29.8346 2.96554 29.3534C3.12371 28.8722 3.20279 28.1504 3.20279 27.188V7.29824C3.20279 6.30911 3.12371 5.5873 2.96554 5.13283C2.80738 4.65163 2.49106 4.33083 2.01657 4.17043C1.56844 3.98329 0.896253 3.87636 0 3.84962V3.04762ZM9.80607 3.84962C8.59349 3.84962 7.80268 4.07686 7.43363 4.53133C7.06458 4.9858 6.88006 5.9081 6.88006 7.29824V27.188C6.88006 28.1236 6.95914 28.8321 7.11731 29.3133C7.27547 29.7945 7.56543 30.1153 7.9872 30.2757C8.40897 30.4361 9.02843 30.5163 9.84561 30.5163C12.4289 30.5163 14.3005 29.9148 15.4604 28.7118C16.6466 27.482 17.2397 25.7444 17.2397 23.4987C17.2397 21.4403 16.6861 19.8496 15.579 18.7268C14.4982 17.604 12.7057 17.0426 10.2015 17.0426H6.12879C6.12879 17.0426 6.12879 16.9357 6.12879 16.7218C6.12879 16.4812 6.12879 16.3609 6.12879 16.3609H9.52928C11.0845 16.3609 12.2839 16.0668 13.1275 15.4787C13.971 14.8638 14.5509 14.0618 14.8673 13.0727C15.1836 12.0568 15.3417 10.9741 15.3417 9.82456C15.3417 7.84628 14.9068 6.36257 14.0369 5.37343C13.1934 4.35756 11.7831 3.84962 9.80607 3.84962Z" fill="white"/>
<path d="M33.8091 10.2256C35.4961 10.2256 37.0118 10.5998 38.3562 11.3484C39.7006 12.0969 40.7682 13.2732 41.559 14.8772C42.3762 16.4812 42.7848 18.5664 42.7848 21.1328C42.7848 23.6992 42.3762 25.7845 41.559 27.3885C40.7682 28.9657 39.7006 30.1287 38.3562 30.8772C37.0118 31.6257 35.4961 32 33.8091 32C32.1483 32 30.6326 31.6257 29.2619 30.8772C27.9175 30.1287 26.8367 28.9657 26.0196 27.3885C25.2287 25.7845 24.8333 23.6992 24.8333 21.1328C24.8333 18.5664 25.2287 16.4812 26.0196 14.8772C26.8367 13.2732 27.9175 12.0969 29.2619 11.3484C30.6326 10.5998 32.1483 10.2256 33.8091 10.2256ZM33.8091 11.0276C32.3065 11.0276 31.0676 11.8162 30.0922 13.3935C29.1433 14.9708 28.6688 17.5505 28.6688 21.1328C28.6688 24.7151 29.1433 27.2949 30.0922 28.8722C31.0676 30.4227 32.3065 31.198 33.8091 31.198C35.3116 31.198 36.5374 30.4227 37.4863 28.8722C38.4617 27.2949 38.9493 24.7151 38.9493 21.1328C38.9493 17.5505 38.4617 14.9708 37.4863 13.3935C36.5374 11.8162 35.3116 11.0276 33.8091 11.0276Z" fill="white"/>
<path d="M51.6057 0V27.7093C51.6057 28.8321 51.8034 29.594 52.1988 29.995C52.5942 30.396 53.2664 30.5965 54.2154 30.5965V31.4386C53.7936 31.4119 53.161 31.3851 52.3174 31.3584C51.5003 31.3049 50.6699 31.2782 49.8264 31.2782C48.9301 31.2782 48.0207 31.3049 47.0981 31.3584C46.1755 31.3851 45.4901 31.4119 45.042 31.4386V30.5965C46.1228 30.5965 46.8872 30.396 47.3353 29.995C47.8098 29.594 48.0471 28.8321 48.0471 27.7093V4.81203C48.0471 3.60902 47.8362 2.72682 47.4144 2.16541C46.9926 1.57728 46.2018 1.28321 45.042 1.28321V0.441102C45.8855 0.521303 46.7027 0.561403 47.4935 0.561403C48.2579 0.561403 48.9829 0.521303 49.6682 0.441102C50.38 0.334169 51.0258 0.187135 51.6057 0ZM64.1796 10.787V11.589C63.5206 11.6424 62.9011 11.8296 62.3212 12.1504C61.7413 12.4444 61.1745 12.8855 60.621 13.4737L55.0457 19.4085L55.5993 18.2857L62.9539 28.5113C63.402 29.1262 63.8238 29.6074 64.2192 29.9549C64.6409 30.3024 65.1418 30.5163 65.7217 30.5965V31.4386C65.4317 31.4119 64.9704 31.3851 64.3378 31.3584C63.7315 31.3049 63.1252 31.2782 62.5189 31.2782C61.7017 31.2782 60.8714 31.3049 60.0279 31.3584C59.1843 31.3851 58.5517 31.4119 58.1299 31.4386V30.5965C58.6571 30.5965 59.0262 30.4628 59.237 30.1955C59.4479 29.9282 59.4084 29.6074 59.1184 29.2331L54.5713 22.4962C54.0704 21.7744 53.6091 21.3066 53.1873 21.0927C52.7919 20.8789 52.212 20.7586 51.4476 20.7318V19.9298C52.2911 19.8229 52.9765 19.6491 53.5037 19.4085C54.0309 19.1412 54.5317 18.7536 55.0062 18.2456L57.9322 15.1579C58.7757 14.2757 59.1975 13.5806 59.1975 13.0727C59.1975 12.538 58.9207 12.1637 58.3672 11.9499C57.8399 11.7093 57.1414 11.589 56.2715 11.589V10.787C56.9569 10.8137 57.7213 10.8538 58.5649 10.9073C59.4348 10.934 60.1597 10.9474 60.7396 10.9474C61.1877 10.9474 61.6227 10.9474 62.0444 10.9474C62.4662 10.9206 62.8616 10.8939 63.2306 10.8672C63.5997 10.8404 63.916 10.8137 64.1796 10.787Z" fill="white"/>
<path d="M72.3661 31.7193C71.2853 31.7193 70.3495 31.5188 69.5587 31.1178C68.7679 30.6901 68.1616 30.1019 67.7398 29.3534C67.3444 28.6048 67.1467 27.736 67.1467 26.7469C67.1467 25.5706 67.4103 24.6082 67.9375 23.8596C68.4911 23.1111 69.1896 22.5096 70.0332 22.0551C70.8767 21.6007 71.7598 21.2264 72.6824 20.9323C73.6314 20.6115 74.5276 20.3175 75.3712 20.0501C76.2147 19.7561 76.9001 19.4219 77.4273 19.0476C77.9808 18.6734 78.2576 18.1788 78.2576 17.5639V15.0777C78.2576 13.9549 78.0863 13.0994 77.7436 12.5113C77.4273 11.9231 76.9923 11.5355 76.4387 11.3484C75.8852 11.1345 75.2657 11.0276 74.5803 11.0276C73.9213 11.0276 73.2096 11.1211 72.4452 11.3083C71.7071 11.4954 71.1139 11.883 70.6658 12.4712C71.1667 12.5781 71.6016 12.8454 71.9707 13.2732C72.3397 13.7009 72.5242 14.249 72.5242 14.9173C72.5242 15.5856 72.3133 16.1203 71.8916 16.5213C71.4698 16.8956 70.9294 17.0827 70.2704 17.0827C69.506 17.0827 68.9392 16.8421 68.5702 16.3609C68.2275 15.853 68.0561 15.2916 68.0561 14.6767C68.0561 13.9816 68.2275 13.4202 68.5702 12.9925C68.9129 12.5647 69.3478 12.1637 69.875 11.7895C70.4813 11.3617 71.2589 11.0008 72.2079 10.7068C73.1832 10.386 74.2772 10.2256 75.4898 10.2256C76.5705 10.2256 77.4932 10.3592 78.2576 10.6266C79.0221 10.8672 79.6547 11.2281 80.1556 11.7093C80.8409 12.3509 81.2891 13.1395 81.4999 14.0752C81.7108 14.9841 81.8163 16.0802 81.8163 17.3634V28.5113C81.8163 29.1796 81.9085 29.6608 82.093 29.9549C82.3039 30.249 82.6203 30.396 83.042 30.396C83.332 30.396 83.6088 30.3292 83.8724 30.1955C84.136 30.0618 84.4523 29.848 84.8214 29.5539L85.2563 30.2356C84.7027 30.6633 84.1755 31.0242 83.6747 31.3183C83.1738 31.5856 82.5016 31.7193 81.6581 31.7193C80.8937 31.7193 80.261 31.5856 79.7602 31.3183C79.2593 31.051 78.8771 30.6633 78.6135 30.1554C78.3762 29.6207 78.2576 28.9524 78.2576 28.1504C77.5459 29.3534 76.6892 30.249 75.6875 30.8371C74.7121 31.4252 73.605 31.7193 72.3661 31.7193ZM73.7895 30.1153C74.6594 30.1153 75.4634 29.8613 76.2015 29.3534C76.966 28.8454 77.6513 28.0835 78.2576 27.0677V19.208C77.9413 19.6625 77.48 20.0501 76.8737 20.3709C76.2674 20.665 75.6084 20.9724 74.8967 21.2932C74.1849 21.5873 73.4996 21.9482 72.8406 22.3759C72.2079 22.7769 71.6807 23.3116 71.2589 23.98C70.8372 24.6483 70.6263 25.5171 70.6263 26.5865C70.6263 27.6558 70.9031 28.5113 71.4566 29.1529C72.0366 29.7945 72.8142 30.1153 73.7895 30.1153Z" fill="white"/>
<path d="M118.517 3.04762V3.84962C118.016 3.95656 117.475 4.26399 116.896 4.77193C116.342 5.27987 115.841 6.13534 115.393 7.33835L106.101 31.6391C106.048 31.6391 105.996 31.6391 105.943 31.6391C105.89 31.6391 105.837 31.6391 105.785 31.6391C105.732 31.6391 105.679 31.6391 105.626 31.6391C105.574 31.6391 105.521 31.6391 105.468 31.6391L95.8204 6.41604C95.425 5.40017 94.9769 4.73183 94.4761 4.41103C93.9752 4.06349 93.5139 3.87636 93.0921 3.84962V3.04762C93.6193 3.07435 94.2652 3.10109 95.0296 3.12782C95.8204 3.15455 96.5849 3.16792 97.323 3.16792C98.351 3.16792 99.3132 3.15455 100.209 3.12782C101.106 3.10109 101.831 3.07435 102.384 3.04762V3.84962C101.488 3.87636 100.803 3.98329 100.328 4.17043C99.8799 4.35756 99.6295 4.69173 99.5768 5.17293C99.5504 5.6274 99.7086 6.30911 100.051 7.21805L107.406 26.9875L106.773 27.6692L113.653 9.54386C114.207 8.10025 114.47 6.97744 114.444 6.17544C114.418 5.3467 114.115 4.75856 113.535 4.41103C112.955 4.06349 112.111 3.87636 111.004 3.84962V3.04762C111.768 3.07435 112.546 3.10109 113.337 3.12782C114.128 3.15455 114.866 3.16792 115.551 3.16792C116.237 3.16792 116.803 3.15455 117.251 3.12782C117.7 3.10109 118.121 3.07435 118.517 3.04762Z" fill="white"/>
<path d="M126.635 10.2256C128.955 10.2256 130.76 10.9474 132.052 12.391C133.37 13.8079 134.029 16.0267 134.029 19.0476H120.071L120.032 18.2857H130.233C130.286 16.9758 130.18 15.7728 129.917 14.6767C129.653 13.5539 129.231 12.6583 128.651 11.99C128.098 11.3216 127.373 10.9875 126.477 10.9875C125.264 10.9875 124.183 11.6023 123.234 12.8321C122.312 14.0618 121.758 16.0134 121.574 18.6867L121.692 18.8471C121.64 19.2481 121.6 19.6892 121.574 20.1704C121.547 20.6516 121.534 21.1328 121.534 21.614C121.534 23.4319 121.824 24.9958 122.404 26.3058C122.984 27.6157 123.735 28.6182 124.658 29.3133C125.607 29.9816 126.582 30.3158 127.584 30.3158C128.375 30.3158 129.126 30.1955 129.838 29.9549C130.549 29.6876 131.208 29.2598 131.815 28.6717C132.421 28.0835 132.948 27.2949 133.396 26.3058L134.187 26.6266C133.897 27.5088 133.423 28.3642 132.764 29.193C132.105 30.0217 131.274 30.7034 130.273 31.2381C129.271 31.746 128.111 32 126.793 32C124.895 32 123.261 31.5589 121.89 30.6767C120.546 29.7945 119.504 28.5781 118.766 27.0276C118.055 25.4503 117.699 23.6458 117.699 21.614C117.699 19.2615 118.068 17.2431 118.806 15.5589C119.544 13.848 120.585 12.538 121.93 11.6291C123.274 10.6934 124.842 10.2256 126.635 10.2256Z" fill="white"/>
<path d="M149.326 10.2256C150.037 10.2256 150.657 10.3726 151.184 10.6667C151.738 10.9607 152.159 11.3484 152.449 11.8296C152.766 12.284 152.924 12.8053 152.924 13.3935C152.924 14.0618 152.713 14.65 152.291 15.1579C151.896 15.6658 151.355 15.9198 150.67 15.9198C150.116 15.9198 149.629 15.746 149.207 15.3985C148.785 15.0242 148.574 14.5029 148.574 13.8346C148.574 13.3267 148.706 12.8989 148.97 12.5514C149.26 12.1771 149.576 11.883 149.919 11.6692C149.734 11.4018 149.457 11.2682 149.088 11.2682C148.271 11.2682 147.52 11.5221 146.835 12.0301C146.149 12.5113 145.569 13.1395 145.095 13.9148C144.62 14.6901 144.251 15.5188 143.988 16.401C143.724 17.2565 143.592 18.0585 143.592 18.807V27.3083C143.592 28.6182 143.961 29.5004 144.699 29.9549C145.464 30.3826 146.492 30.5965 147.784 30.5965V31.4386C147.177 31.4119 146.321 31.3851 145.213 31.3584C144.106 31.3049 142.933 31.2782 141.694 31.2782C140.798 31.2782 139.902 31.3049 139.006 31.3584C138.136 31.3851 137.477 31.4119 137.029 31.4386V30.5965C138.109 30.5965 138.874 30.396 139.322 29.995C139.796 29.594 140.034 28.8321 140.034 27.7093V15.1579C140.034 13.9549 139.823 13.0727 139.401 12.5113C138.979 11.9231 138.188 11.6291 137.029 11.6291V10.787C137.872 10.8672 138.689 10.9073 139.48 10.9073C140.244 10.9073 140.969 10.8672 141.655 10.787C142.367 10.68 143.012 10.533 143.592 10.3459V15.3584C143.882 14.5831 144.291 13.8079 144.818 13.0326C145.372 12.2306 146.031 11.5622 146.795 11.0276C147.559 10.4929 148.403 10.2256 149.326 10.2256Z" fill="white"/>
<path d="M171.855 0V27.0677C171.855 28.2707 172.066 29.1663 172.488 29.7544C172.936 30.3158 173.727 30.5965 174.86 30.5965V31.4386C174.043 31.3584 173.226 31.3183 172.409 31.3183C171.644 31.3183 170.906 31.3584 170.194 31.4386C169.509 31.5188 168.876 31.6658 168.296 31.8797V4.81203C168.296 3.60902 168.086 2.72682 167.664 2.16541C167.242 1.57728 166.451 1.28321 165.291 1.28321V0.441102C166.135 0.521303 166.952 0.561403 167.743 0.561403C168.507 0.561403 169.232 0.521303 169.918 0.441102C170.629 0.334169 171.275 0.187135 171.855 0ZM163.552 10.2256C164.711 10.2256 165.792 10.5063 166.794 11.0677C167.822 11.6291 168.507 12.5915 168.85 13.9549L168.336 14.3559C167.967 13.2331 167.387 12.4177 166.596 11.9098C165.832 11.4018 164.922 11.1479 163.868 11.1479C162.313 11.1479 161.008 11.9632 159.953 13.594C158.925 15.2247 158.424 17.7377 158.451 21.1328C158.451 23.2982 158.649 25.1028 159.044 26.5464C159.466 27.9632 160.072 29.0326 160.863 29.7544C161.68 30.4495 162.669 30.797 163.828 30.797C164.936 30.797 165.937 30.3158 166.833 29.3534C167.73 28.391 168.27 26.9741 168.455 25.1028L168.929 25.6642C168.718 27.6959 168.072 29.2598 166.992 30.3559C165.937 31.452 164.501 32 162.682 32C161.047 32 159.611 31.599 158.372 30.797C157.159 29.995 156.223 28.792 155.564 27.188C154.932 25.584 154.615 23.5656 154.615 21.1328C154.615 18.7001 155.024 16.6817 155.841 15.0777C156.685 13.447 157.779 12.2306 159.123 11.4286C160.494 10.6266 161.97 10.2256 163.552 10.2256Z" fill="white"/>
<path d="M186.448 10.2256C188.767 10.2256 190.573 10.9474 191.865 12.391C193.183 13.8079 193.842 16.0267 193.842 19.0476H179.884L179.844 18.2857H190.046C190.099 16.9758 189.993 15.7728 189.73 14.6767C189.466 13.5539 189.044 12.6583 188.464 11.99C187.911 11.3216 187.186 10.9875 186.29 10.9875C185.077 10.9875 183.996 11.6023 183.047 12.8321C182.125 14.0618 181.571 16.0134 181.387 18.6867L181.505 18.8471C181.452 19.2481 181.413 19.6892 181.387 20.1704C181.36 20.6516 181.347 21.1328 181.347 21.614C181.347 23.4319 181.637 24.9958 182.217 26.3058C182.797 27.6157 183.548 28.6182 184.471 29.3133C185.42 29.9816 186.395 30.3158 187.397 30.3158C188.188 30.3158 188.939 30.1955 189.651 29.9549C190.362 29.6876 191.021 29.2598 191.628 28.6717C192.234 28.0835 192.761 27.2949 193.209 26.3058L194 26.6266C193.71 27.5088 193.236 28.3642 192.577 29.193C191.918 30.0217 191.087 30.7034 190.085 31.2381C189.084 31.746 187.924 32 186.606 32C184.708 32 183.074 31.5589 181.703 30.6767C180.359 29.7945 179.317 28.5781 178.579 27.0276C177.867 25.4503 177.512 23.6458 177.512 21.614C177.512 19.2615 177.881 17.2431 178.619 15.5589C179.357 13.848 180.398 12.538 181.742 11.6291C183.087 10.6934 184.655 10.2256 186.448 10.2256Z" fill="white"/>
</svg>
