<svg width="240" height="39" viewBox="0 0 240 39" fill="none" xmlns="http://www.w3.org/2000/svg">
<path d="M0 3.71429C0.684826 3.74687 1.58162 3.77945 2.69039 3.81203C3.79916 3.84461 4.89162 3.8609 5.96777 3.8609C7.50048 3.8609 8.96797 3.84461 10.3702 3.81203C11.7725 3.77945 12.7671 3.76316 13.3541 3.76316C16.7783 3.76316 19.3545 4.47995 21.0829 5.91353C22.8112 7.34712 23.6754 9.18797 23.6754 11.4361C23.6754 12.5764 23.4309 13.7005 22.9417 14.8083C22.4851 15.8835 21.7025 16.8772 20.5937 17.7895C19.5176 18.6692 18.0664 19.386 16.2402 19.9398V20.0376C18.8164 20.3634 20.822 20.9825 22.2569 21.8947C23.7244 22.7744 24.7516 23.817 25.3386 25.0226C25.9256 26.2281 26.2191 27.4987 26.2191 28.8346C26.2191 30.6917 25.7462 32.3371 24.8005 33.7707C23.8874 35.1717 22.5504 36.2794 20.7894 37.094C19.0284 37.9085 16.925 38.3158 14.4792 38.3158C13.7618 38.3158 12.6856 38.2995 11.2507 38.2669C9.81585 38.2018 8.08748 38.1692 6.06561 38.1692C4.92423 38.1692 3.79916 38.1855 2.69039 38.218C1.58162 38.218 0.684826 38.2506 0 38.3158V37.3383C1.10877 37.2732 1.94034 37.1429 2.49473 36.9474C3.08172 36.7519 3.47305 36.3609 3.66871 35.7744C3.86438 35.188 3.96221 34.3083 3.96221 33.1353V8.89474C3.96221 7.68922 3.86438 6.80952 3.66871 6.25564C3.47305 5.66917 3.08172 5.2782 2.49473 5.08271C1.94034 4.85464 1.10877 4.72431 0 4.69173V3.71429ZM12.1312 4.69173C10.6311 4.69173 9.65279 4.96867 9.19624 5.52256C8.73969 6.07644 8.51142 7.2005 8.51142 8.89474V33.1353C8.51142 34.2757 8.60925 35.1391 8.80491 35.7256C9.00058 36.312 9.3593 36.703 9.88107 36.8985C10.4028 37.094 11.1692 37.1917 12.1801 37.1917C15.376 37.1917 17.6914 36.4586 19.1262 34.9925C20.5937 33.4937 21.3275 31.3759 21.3275 28.6391C21.3275 26.1303 20.6426 24.1917 19.273 22.8233C17.9359 21.4549 15.7184 20.7707 12.6204 20.7707H7.58201C7.58201 20.7707 7.58201 20.6404 7.58201 20.3797C7.58201 20.0865 7.58201 19.9398 7.58201 19.9398H11.7888C13.7128 19.9398 15.1966 19.5815 16.2402 18.8647C17.2837 18.1153 18.0012 17.1378 18.3925 15.9323C18.7838 14.6942 18.9795 13.3747 18.9795 11.9737C18.9795 9.56266 18.4414 7.75439 17.3652 6.54887C16.3217 5.31078 14.577 4.69173 12.1312 4.69173Z" fill="#0017A8"/>
<path d="M41.8256 12.4624C43.9127 12.4624 45.7878 12.9185 47.451 13.8308C49.1141 14.7431 50.4349 16.1767 51.4132 18.1316C52.4241 20.0865 52.9296 22.6278 52.9296 25.7556C52.9296 28.8835 52.4241 31.4248 51.4132 33.3797C50.4349 35.302 49.1141 36.7193 47.451 37.6316C45.7878 38.5439 43.9127 39 41.8256 39C39.7711 39 37.896 38.5439 36.2003 37.6316C34.5371 36.7193 33.2001 35.302 32.1891 33.3797C31.2108 31.4248 30.7217 28.8835 30.7217 25.7556C30.7217 22.6278 31.2108 20.0865 32.1891 18.1316C33.2001 16.1767 34.5371 14.7431 36.2003 13.8308C37.896 12.9185 39.7711 12.4624 41.8256 12.4624ZM41.8256 13.4399C39.9668 13.4399 38.4341 14.401 37.2275 16.3233C36.0535 18.2456 35.4665 21.3897 35.4665 25.7556C35.4665 30.1216 36.0535 33.2657 37.2275 35.188C38.4341 37.0777 39.9668 38.0226 41.8256 38.0226C43.6844 38.0226 45.2008 37.0777 46.3748 35.188C47.5814 33.2657 48.1847 30.1216 48.1847 25.7556C48.1847 21.3897 47.5814 18.2456 46.3748 16.3233C45.2008 14.401 43.6844 13.4399 41.8256 13.4399Z" fill="#0017A8"/>
<path d="M63.8421 0V33.7707C63.8421 35.1391 64.0867 36.0677 64.5759 36.5564C65.065 37.0451 65.8966 37.2895 67.0706 37.2895V38.3158C66.5488 38.2832 65.7662 38.2506 64.7226 38.218C63.7117 38.1529 62.6844 38.1203 61.6409 38.1203C60.5321 38.1203 59.407 38.1529 58.2657 38.218C57.1243 38.2506 56.2764 38.2832 55.722 38.3158V37.2895C57.0591 37.2895 58.0048 37.0451 58.5592 36.5564C59.1462 36.0677 59.4397 35.1391 59.4397 33.7707V5.86466C59.4397 4.3985 59.1788 3.32331 58.657 2.6391C58.1352 1.92231 57.1569 1.56391 55.722 1.56391V0.537593C56.7656 0.635338 57.7765 0.68421 58.7548 0.68421C59.7005 0.68421 60.5973 0.635338 61.4452 0.537593C62.3257 0.407269 63.1247 0.228071 63.8421 0ZM79.3975 13.1466V14.1241C78.5822 14.1892 77.8158 14.4173 77.0984 14.8083C76.381 15.1667 75.6798 15.7043 74.995 16.4211L68.0978 23.6541L68.7827 22.2857L77.8811 34.7481C78.4354 35.4975 78.9572 36.084 79.4464 36.5075C79.9681 36.9311 80.5878 37.1917 81.3052 37.2895V38.3158C80.9465 38.2832 80.3758 38.2506 79.5931 38.218C78.8431 38.1529 78.093 38.1203 77.343 38.1203C76.332 38.1203 75.3048 38.1529 74.2613 38.218C73.2177 38.2506 72.4351 38.2832 71.9133 38.3158V37.2895C72.5655 37.2895 73.0221 37.1266 73.2829 36.8008C73.5438 36.4749 73.4949 36.084 73.1362 35.6278L67.5108 27.4173C66.8912 26.5376 66.3205 25.9674 65.7988 25.7068C65.3096 25.4461 64.5922 25.2995 63.6465 25.2669V24.2895C64.69 24.1591 65.5379 23.9474 66.1901 23.6541C66.8423 23.3283 67.4619 22.8559 68.0489 22.2368L71.6687 18.4737C72.7123 17.3985 73.234 16.5514 73.234 15.9323C73.234 15.2807 72.8916 14.8246 72.2068 14.5639C71.5546 14.2707 70.6904 14.1241 69.6142 14.1241V13.1466C70.4621 13.1792 71.4078 13.2281 72.4514 13.2932C73.5275 13.3258 74.4243 13.3421 75.1418 13.3421C75.6961 13.3421 76.2342 13.3421 76.756 13.3421C77.2778 13.3095 77.7669 13.2769 78.2235 13.2444C78.68 13.2118 79.0714 13.1792 79.3975 13.1466Z" fill="#0017A8"/>
<path d="M89.525 38.6579C88.188 38.6579 87.0303 38.4135 86.052 37.9248C85.0736 37.4035 84.3236 36.6867 83.8018 35.7744C83.3127 34.8622 83.0681 33.8033 83.0681 32.5977C83.0681 31.1642 83.3942 29.9912 84.0464 29.0789C84.7312 28.1667 85.5954 27.4336 86.639 26.8797C87.6825 26.3258 88.775 25.8697 89.9164 25.5113C91.0903 25.1203 92.1991 24.7619 93.2427 24.4361C94.2862 24.0777 95.1341 23.6704 95.7863 23.2143C96.4711 22.7581 96.8135 22.1554 96.8135 21.406V18.3759C96.8135 17.0075 96.6016 15.9649 96.1776 15.2481C95.7863 14.5313 95.2482 14.0589 94.5634 13.8308C93.8786 13.5702 93.1122 13.4399 92.2643 13.4399C91.4491 13.4399 90.5686 13.5539 89.6229 13.782C88.7098 14.01 87.976 14.4825 87.4216 15.1992C88.0412 15.3296 88.5793 15.6554 89.0359 16.1767C89.4924 16.698 89.7207 17.3659 89.7207 18.1805C89.7207 18.995 89.4598 19.6466 88.938 20.1353C88.4163 20.5915 87.7477 20.8195 86.9325 20.8195C85.9868 20.8195 85.2856 20.5263 84.8291 19.9398C84.4051 19.3208 84.1932 18.6366 84.1932 17.8872C84.1932 17.0401 84.4051 16.3559 84.8291 15.8346C85.253 15.3133 85.7911 14.8246 86.4433 14.3684C87.1934 13.8471 88.1554 13.4073 89.3294 13.0489C90.536 12.6579 91.8893 12.4624 93.3894 12.4624C94.7264 12.4624 95.8678 12.6253 96.8135 12.9511C97.7592 13.2444 98.5419 13.6842 99.1615 14.2707C100.009 15.0526 100.564 16.0138 100.825 17.1541C101.086 18.2619 101.216 19.5977 101.216 21.1617V34.7481C101.216 35.5627 101.33 36.1491 101.558 36.5075C101.819 36.8659 102.211 37.0451 102.732 37.0451C103.091 37.0451 103.434 36.9637 103.76 36.8008C104.086 36.6378 104.477 36.3772 104.934 36.0188L105.472 36.8496C104.787 37.3709 104.135 37.8108 103.515 38.1692C102.895 38.495 102.064 38.6579 101.02 38.6579C100.075 38.6579 99.292 38.495 98.6723 38.1692C98.0527 37.8434 97.5799 37.3709 97.2538 36.7519C96.9603 36.1002 96.8135 35.2857 96.8135 34.3083C95.933 35.7744 94.8732 36.8659 93.634 37.5827C92.4274 38.2995 91.0577 38.6579 89.525 38.6579ZM91.286 36.703C92.3622 36.703 93.3568 36.3935 94.2699 35.7744C95.2156 35.1554 96.0635 34.2268 96.8135 32.9887V23.4098C96.4222 23.9637 95.8515 24.4361 95.1015 24.8271C94.3514 25.1855 93.5361 25.5601 92.6557 25.9511C91.7752 26.3095 90.9273 26.7494 90.112 27.2707C89.3294 27.7594 88.6771 28.411 88.1554 29.2256C87.6336 30.0401 87.3727 31.099 87.3727 32.4023C87.3727 33.7055 87.7151 34.7481 88.3999 35.5301C89.1174 36.312 90.0794 36.703 91.286 36.703Z" fill="#0017A8"/>
<path d="M146.619 3.71429V4.69173C145.999 4.82206 145.33 5.19674 144.613 5.81579C143.928 6.43484 143.309 7.47744 142.754 8.94361L131.259 38.5601C131.194 38.5601 131.128 38.5601 131.063 38.5601C130.998 38.5601 130.933 38.5601 130.868 38.5601C130.802 38.5601 130.737 38.5601 130.672 38.5601C130.607 38.5601 130.542 38.5601 130.476 38.5601L118.541 7.81955C118.052 6.58145 117.497 5.76692 116.878 5.37594C116.258 4.95238 115.687 4.72431 115.166 4.69173V3.71429C115.818 3.74687 116.617 3.77945 117.562 3.81203C118.541 3.84461 119.486 3.8609 120.4 3.8609C121.671 3.8609 122.862 3.84461 123.97 3.81203C125.079 3.77945 125.976 3.74687 126.661 3.71429V4.69173C125.552 4.72431 124.704 4.85464 124.117 5.08271C123.563 5.31078 123.253 5.71804 123.188 6.30451C123.155 6.8584 123.351 7.68922 123.775 8.79699L132.873 32.891L132.091 33.7218L140.602 11.6316C141.287 9.87218 141.613 8.50376 141.58 7.52631C141.548 6.51629 141.173 5.7995 140.455 5.37594C139.738 4.95238 138.694 4.72431 137.325 4.69173V3.71429C138.27 3.74687 139.232 3.77945 140.211 3.81203C141.189 3.84461 142.102 3.8609 142.95 3.8609C143.798 3.8609 144.499 3.84461 145.053 3.81203C145.608 3.77945 146.129 3.74687 146.619 3.71429Z" fill="#0017A8"/>
<path d="M156.662 12.4624C159.531 12.4624 161.765 13.3421 163.363 15.1015C164.994 16.8283 165.809 19.5326 165.809 23.2143H148.542L148.493 22.2857H161.113C161.178 20.6892 161.048 19.2231 160.722 17.8872C160.396 16.5188 159.874 15.4273 159.156 14.6128C158.472 13.7982 157.575 13.391 156.466 13.391C154.966 13.391 153.629 14.1403 152.455 15.6391C151.314 17.1378 150.629 19.5163 150.4 22.7744L150.547 22.9699C150.482 23.4586 150.433 23.9962 150.4 24.5827C150.368 25.1692 150.352 25.7556 150.352 26.3421C150.352 28.5576 150.71 30.4637 151.428 32.0601C152.145 33.6566 153.075 34.8784 154.216 35.7256C155.39 36.5401 156.596 36.9474 157.836 36.9474C158.814 36.9474 159.743 36.8008 160.624 36.5075C161.504 36.1817 162.32 35.6604 163.07 34.9436C163.82 34.2268 164.472 33.2657 165.026 32.0601L166.005 32.4511C165.646 33.5263 165.059 34.5689 164.244 35.5789C163.428 36.589 162.401 37.4198 161.162 38.0714C159.923 38.6905 158.488 39 156.857 39C154.509 39 152.488 38.4624 150.792 37.3872C149.129 36.312 147.84 34.8296 146.927 32.9398C146.047 31.0175 145.607 28.8183 145.607 26.3421C145.607 23.4749 146.063 21.015 146.976 18.9624C147.889 16.8772 149.178 15.2807 150.841 14.1729C152.504 13.0326 154.444 12.4624 156.662 12.4624Z" fill="#0017A8"/>
<path d="M184.733 12.4624C185.613 12.4624 186.38 12.6416 187.032 13C187.717 13.3584 188.238 13.8308 188.597 14.4173C188.988 14.9712 189.184 15.6065 189.184 16.3233C189.184 17.1378 188.923 17.8546 188.401 18.4737C187.912 19.0927 187.244 19.4023 186.396 19.4023C185.711 19.4023 185.108 19.1905 184.586 18.7669C184.064 18.3108 183.803 17.6754 183.803 16.8609C183.803 16.2419 183.966 15.7206 184.292 15.297C184.651 14.8409 185.043 14.4825 185.466 14.2218C185.238 13.896 184.896 13.7331 184.439 13.7331C183.428 13.7331 182.499 14.0426 181.651 14.6617C180.803 15.2481 180.086 16.0138 179.499 16.9586C178.912 17.9035 178.455 18.9135 178.129 19.9887C177.803 21.0313 177.64 22.0088 177.64 22.9211V33.282C177.64 34.8784 178.096 35.9536 179.01 36.5075C179.955 37.0288 181.227 37.2895 182.825 37.2895V38.3158C182.075 38.2832 181.015 38.2506 179.645 38.218C178.276 38.1529 176.825 38.1203 175.292 38.1203C174.183 38.1203 173.074 38.1529 171.966 38.218C170.889 38.2506 170.074 38.2832 169.52 38.3158V37.2895C170.857 37.2895 171.803 37.0451 172.357 36.5564C172.944 36.0677 173.237 35.1391 173.237 33.7707V18.4737C173.237 17.0075 172.977 15.9323 172.455 15.2481C171.933 14.5313 170.955 14.1729 169.52 14.1729V13.1466C170.563 13.2444 171.574 13.2932 172.553 13.2932C173.498 13.2932 174.395 13.2444 175.243 13.1466C176.123 13.0163 176.922 12.8371 177.64 12.609V18.718C177.999 17.7732 178.504 16.8283 179.156 15.8835C179.841 14.906 180.656 14.0915 181.602 13.4399C182.548 12.7882 183.591 12.4624 184.733 12.4624Z" fill="#0017A8"/>
<path d="M212.604 0V32.9887C212.604 34.4549 212.865 35.5464 213.387 36.2632C213.941 36.9474 214.92 37.2895 216.322 37.2895V38.3158C215.311 38.218 214.3 38.1692 213.289 38.1692C212.343 38.1692 211.43 38.218 210.55 38.3158C209.702 38.4135 208.919 38.5927 208.202 38.8534V5.86466C208.202 4.3985 207.941 3.32331 207.419 2.6391C206.897 1.92231 205.919 1.56391 204.484 1.56391V0.537593C205.528 0.635338 206.539 0.68421 207.517 0.68421C208.463 0.68421 209.359 0.635338 210.207 0.537593C211.088 0.407269 211.887 0.228071 212.604 0ZM202.332 12.4624C203.767 12.4624 205.104 12.8045 206.343 13.4887C207.615 14.1729 208.463 15.3459 208.887 17.0075L208.251 17.4962C207.794 16.1278 207.077 15.1341 206.098 14.515C205.153 13.896 204.028 13.5865 202.723 13.5865C200.799 13.5865 199.185 14.5802 197.88 16.5677C196.609 18.5551 195.989 21.6178 196.022 25.7556C196.022 28.3947 196.266 30.594 196.755 32.3534C197.277 34.0802 198.027 35.3835 199.006 36.2632C200.016 37.1103 201.239 37.5338 202.674 37.5338C204.044 37.5338 205.283 36.9474 206.392 35.7744C207.501 34.6015 208.169 32.8747 208.397 30.594L208.984 31.2782C208.724 33.7544 207.925 35.6604 206.588 36.9962C205.283 38.3321 203.506 39 201.256 39C199.234 39 197.457 38.5113 195.924 37.5338C194.424 36.5564 193.266 35.0902 192.451 33.1353C191.668 31.1805 191.277 28.7206 191.277 25.7556C191.277 22.7907 191.782 20.3308 192.793 18.3759C193.837 16.3885 195.19 14.906 196.853 13.9286C198.549 12.9511 200.375 12.4624 202.332 12.4624Z" fill="#0017A8"/>
<path d="M230.657 12.4624C233.527 12.4624 235.761 13.3421 237.359 15.1015C238.989 16.8283 239.804 19.5326 239.804 23.2143H222.537L222.488 22.2857H235.108C235.174 20.6892 235.043 19.2231 234.717 17.8872C234.391 16.5188 233.869 15.4273 233.152 14.6128C232.467 13.7982 231.57 13.391 230.461 13.391C228.961 13.391 227.624 14.1403 226.45 15.6391C225.309 17.1378 224.624 19.5163 224.396 22.7744L224.542 22.9699C224.477 23.4586 224.428 23.9962 224.396 24.5827C224.363 25.1692 224.347 25.7556 224.347 26.3421C224.347 28.5576 224.706 30.4637 225.423 32.0601C226.14 33.6566 227.07 34.8784 228.211 35.7256C229.385 36.5401 230.592 36.9474 231.831 36.9474C232.809 36.9474 233.739 36.8008 234.619 36.5075C235.5 36.1817 236.315 35.6604 237.065 34.9436C237.815 34.2268 238.467 33.2657 239.022 32.0601L240 32.4511C239.641 33.5263 239.054 34.5689 238.239 35.5789C237.424 36.589 236.397 37.4198 235.157 38.0714C233.918 38.6905 232.483 39 230.853 39C228.505 39 226.483 38.4624 224.787 37.3872C223.124 36.312 221.836 34.8296 220.923 32.9398C220.042 31.0175 219.602 28.8183 219.602 26.3421C219.602 23.4749 220.058 21.015 220.972 18.9624C221.885 16.8772 223.173 15.2807 224.836 14.1729C226.499 13.0326 228.439 12.4624 230.657 12.4624Z" fill="#0017A8"/>
</svg>
