<svg width="0" height="0" class="hidden">
  <symbol fill="none" xmlns="http://www.w3.org/2000/svg" viewBox="0 0 15 16" id="ic_arr_hor">
    <path d="M3 8L11 0.5V15.5L3 8Z" fill="currentColor"></path>
  </symbol>
  <symbol fill="none" xmlns="http://www.w3.org/2000/svg" viewBox="0 0 24 24" id="ic_arr_ver">
    <path d="M6 9L12 15L18 9" stroke="currentColor" stroke-width="1.5"></path>
  </symbol>
  <symbol fill="none" xmlns="http://www.w3.org/2000/svg" viewBox="0 0 12 13" id="ic_arr_ver2">
    <path d="M6 10.1L0 3.7H12L6 10.1Z" fill="currentColor"></path>
  </symbol>
  <symbol fill="none" xmlns="http://www.w3.org/2000/svg" viewBox="0 0 12 10" id="ic_check">
    <path d="M4 9.4L0 5.4L1.4 4L4 6.6L10.6 0L12 1.4L4 9.4Z" fill="currentColor"></path>
  </symbol>
  <symbol fill="none" xmlns="http://www.w3.org/2000/svg" viewBox="0 0 40 40" id="ic_close">
    <path d="M10.6668 31.6667L8.3335 29.3333L17.6668 20L8.3335 10.6667L10.6668 8.33333L20.0002 17.6667L29.3335 8.33333L31.6668 10.6667L22.3335 20L31.6668 29.3333L29.3335 31.6667L20.0002 22.3333L10.6668 31.6667Z" fill="currentColor"></path>
  </symbol>
  <symbol fill="none" xmlns="http://www.w3.org/2000/svg" viewBox="0 0 20 20" id="ic_favorite">
    <path d="M10.0832 15.4583L9.99984 15.5417L9.90817 15.4583C5.94984 11.8667 3.33317 9.49167 3.33317 7.08333C3.33317 5.41667 4.58317 4.16667 6.24984 4.16667C7.53317 4.16667 8.78317 5 9.22484 6.13333H10.7748C11.2165 5 12.4665 4.16667 13.7498 4.16667C15.4165 4.16667 16.6665 5.41667 16.6665 7.08333C16.6665 9.49167 14.0498 11.8667 10.0832 15.4583ZM13.7498 2.5C12.2998 2.5 10.9082 3.175 9.99984 4.23333C9.0915 3.175 7.69984 2.5 6.24984 2.5C3.68317 2.5 1.6665 4.50833 1.6665 7.08333C1.6665 10.225 4.49984 12.8 8.7915 16.6917L9.99984 17.7917L11.2082 16.6917C15.4998 12.8 18.3332 10.225 18.3332 7.08333C18.3332 4.50833 16.3165 2.5 13.7498 2.5Z" fill="currentColor"></path>
  </symbol>
  <symbol fill="none" xmlns="http://www.w3.org/2000/svg" viewBox="0 0 32 32" id="ic_grid">
    <path fill-rule="evenodd" clip-rule="evenodd" d="M21.332 21.3333H26.6654V26.6667H21.332V21.3333ZM13.332 21.3333H18.6654V26.6667H13.332V21.3333ZM5.33203 21.3333H10.6654V26.6667H5.33203V21.3333ZM21.332 13.3333H26.6654V18.6667H21.332V13.3333ZM13.332 13.3333H18.6654V18.6667H13.332V13.3333ZM5.33203 13.3333H10.6654V18.6667H5.33203V13.3333ZM21.332 5.33333H26.6654V10.6667H21.332V5.33333ZM13.332 5.33333H18.6654V10.6667H13.332V5.33333ZM5.33203 5.33333H10.6654V10.6667H5.33203V5.33333Z" fill="currentColor"></path>
  </symbol>
  <symbol fill="none" xmlns="http://www.w3.org/2000/svg" viewBox="0 0 32 32" id="ic_insta">
    <path d="M10.3998 2.6665H21.5998C25.8665 2.6665 29.3332 6.13317 29.3332 10.3998V21.5998C29.3332 23.6508 28.5184 25.6178 27.0681 27.0681C25.6178 28.5184 23.6508 29.3332 21.5998 29.3332H10.3998C6.13317 29.3332 2.6665 25.8665 2.6665 21.5998V10.3998C2.6665 8.34883 3.48126 6.38183 4.93155 4.93155C6.38183 3.48126 8.34883 2.6665 10.3998 2.6665ZM10.1332 5.33317C8.86013 5.33317 7.63923 5.83888 6.73906 6.73906C5.83888 7.63923 5.33317 8.86013 5.33317 10.1332V21.8665C5.33317 24.5198 7.47984 26.6665 10.1332 26.6665H21.8665C23.1395 26.6665 24.3604 26.1608 25.2606 25.2606C26.1608 24.3604 26.6665 23.1395 26.6665 21.8665V10.1332C26.6665 7.47984 24.5198 5.33317 21.8665 5.33317H10.1332ZM22.9998 7.33317C23.4419 7.33317 23.8658 7.50877 24.1784 7.82133C24.4909 8.13389 24.6665 8.55781 24.6665 8.99984C24.6665 9.44186 24.4909 9.86579 24.1784 10.1783C23.8658 10.4909 23.4419 10.6665 22.9998 10.6665C22.5578 10.6665 22.1339 10.4909 21.8213 10.1783C21.5088 9.86579 21.3332 9.44186 21.3332 8.99984C21.3332 8.55781 21.5088 8.13389 21.8213 7.82133C22.1339 7.50877 22.5578 7.33317 22.9998 7.33317ZM15.9998 9.33317C17.7679 9.33317 19.4636 10.0355 20.7139 11.2858C21.9641 12.536 22.6665 14.2317 22.6665 15.9998C22.6665 17.7679 21.9641 19.4636 20.7139 20.7139C19.4636 21.9641 17.7679 22.6665 15.9998 22.6665C14.2317 22.6665 12.536 21.9641 11.2858 20.7139C10.0355 19.4636 9.33317 17.7679 9.33317 15.9998C9.33317 14.2317 10.0355 12.536 11.2858 11.2858C12.536 10.0355 14.2317 9.33317 15.9998 9.33317ZM15.9998 11.9998C14.939 11.9998 13.9216 12.4213 13.1714 13.1714C12.4213 13.9216 11.9998 14.939 11.9998 15.9998C11.9998 17.0607 12.4213 18.0781 13.1714 18.8283C13.9216 19.5784 14.939 19.9998 15.9998 19.9998C17.0607 19.9998 18.0781 19.5784 18.8283 18.8283C19.5784 18.0781 19.9998 17.0607 19.9998 15.9998C19.9998 14.939 19.5784 13.9216 18.8283 13.1714C18.0781 12.4213 17.0607 11.9998 15.9998 11.9998Z" fill="currentColor"></path>
  </symbol>
  <symbol fill="none" xmlns="http://www.w3.org/2000/svg" viewBox="0 0 32 32" id="ic_list">
    <path d="M9.33333 12V9.33334H28V12H9.33333ZM9.33333 17.3333V14.6667H28V17.3333H9.33333ZM9.33333 22.6667V20H28V22.6667H9.33333ZM5.33333 12C4.95556 12 4.63911 11.872 4.384 11.616C4.12889 11.36 4.00089 11.0436 4 10.6667C4 10.2889 4.128 9.97245 4.384 9.71734C4.64 9.46223 4.95644 9.33423 5.33333 9.33334C5.71111 9.33334 6.028 9.46134 6.284 9.71734C6.54 9.97334 6.66756 10.2898 6.66667 10.6667C6.66667 11.0445 6.53867 11.3613 6.28267 11.6173C6.02667 11.8733 5.71022 12.0009 5.33333 12ZM5.33333 17.3333C4.95556 17.3333 4.63911 17.2053 4.384 16.9493C4.12889 16.6933 4.00089 16.3769 4 16C4 15.6222 4.128 15.3058 4.384 15.0507C4.64 14.7956 4.95644 14.6676 5.33333 14.6667C5.71111 14.6667 6.028 14.7947 6.284 15.0507C6.54 15.3067 6.66756 15.6231 6.66667 16C6.66667 16.3778 6.53867 16.6947 6.28267 16.9507C6.02667 17.2067 5.71022 17.3342 5.33333 17.3333ZM5.33333 22.6667C4.95556 22.6667 4.63911 22.5387 4.384 22.2827C4.12889 22.0267 4.00089 21.7102 4 21.3333C4 20.9556 4.128 20.6391 4.384 20.384C4.64 20.1289 4.95644 20.0009 5.33333 20C5.71111 20 6.028 20.128 6.284 20.384C6.54 20.64 6.66756 20.9565 6.66667 21.3333C6.66667 21.7111 6.53867 22.028 6.28267 22.284C6.02667 22.54 5.71022 22.6676 5.33333 22.6667Z" fill="currentColor"></path>
  </symbol>
  <symbol fill="none" xmlns="http://www.w3.org/2000/svg" viewBox="0 0 40 40" id="ic_menu">
    <path d="M6.6665 18.3333H26.6665V21.6667H6.6665V18.3333ZM6.6665 10H33.3332V13.3333H6.6665V10ZM6.6665 30H18.7248V26.6667H6.6665V30Z" fill="currentColor"></path>
  </symbol>
  <symbol fill="none" xmlns="http://www.w3.org/2000/svg" viewBox="0 0 32 32" id="ic_tg">
    <path d="M28.8268 6.9999C28.5468 8.81321 26.6535 21.1332 26.0402 24.9999C26.0413 25.2894 25.9682 25.5743 25.8279 25.8275C25.6876 26.0807 25.4847 26.2937 25.2387 26.4462C24.9926 26.5986 24.7115 26.6855 24.4224 26.6984C24.1332 26.7113 23.8455 26.6499 23.5868 26.5199C22.7814 26.2373 22.0222 25.8374 21.3335 25.3332C19.2135 23.9199 17.0535 22.5732 15.0535 20.9999C14.0935 20.2399 14.0802 19.5332 15.0535 18.6932C17.3789 16.5726 19.6594 14.4032 21.8935 12.1866C22.1868 11.8932 22.8535 11.2399 22.4802 10.8532C22.1068 10.4666 21.3335 11.0132 20.9602 11.2666C17.8402 13.3466 14.6935 15.4132 11.6268 17.5466C11.1156 17.932 10.5174 18.1859 9.88505 18.2859C9.25265 18.3859 8.60537 18.3289 8.00017 18.1199C6.53349 17.6799 5.08017 17.1999 3.64017 16.7199C3.05349 16.5332 1.5068 15.9066 4.37349 14.7332C11.6935 11.6932 19.1602 8.6399 26.5068 5.61321C28.2935 4.93321 29.0402 5.53321 28.8268 6.9999Z" fill="currentColor"></path>
  </symbol>
  <symbol fill="none" xmlns="http://www.w3.org/2000/svg" viewBox="0 0 32 32" id="ic_whatsapp">
    <path d="M25.4001 6.54658C24.1775 5.31205 22.7214 4.3332 21.1167 3.66706C19.5121 3.00092 17.7908 2.66082 16.0534 2.66658C8.7734 2.66658 2.84007 8.59991 2.84007 15.8799C2.84007 18.2132 3.4534 20.4799 4.60007 22.4799L2.7334 29.3332L9.7334 27.4932C11.6667 28.5466 13.8401 29.1066 16.0534 29.1066C23.3334 29.1066 29.2667 23.1732 29.2667 15.8932C29.2667 12.3599 27.8934 9.03991 25.4001 6.54658ZM16.0534 26.8666C14.0801 26.8666 12.1467 26.3332 10.4534 25.3332L10.0534 25.0932L5.8934 26.1866L7.00007 22.1332L6.7334 21.7199C5.6368 19.9693 5.05463 17.9456 5.0534 15.8799C5.0534 9.82658 9.98673 4.89324 16.0401 4.89324C18.9734 4.89324 21.7334 6.03991 23.8001 8.11991C24.8236 9.13839 25.6346 10.35 26.1862 11.6843C26.7378 13.0187 27.019 14.4494 27.0134 15.8932C27.0401 21.9466 22.1067 26.8666 16.0534 26.8666ZM22.0801 18.6532C21.7467 18.4932 20.1201 17.6932 19.8267 17.5732C19.5201 17.4666 19.3067 17.4132 19.0801 17.7332C18.8534 18.0666 18.2267 18.8132 18.0401 19.0266C17.8534 19.2532 17.6534 19.2799 17.3201 19.1066C16.9867 18.9466 15.9201 18.5866 14.6667 17.4666C13.6801 16.5866 13.0267 15.5066 12.8267 15.1732C12.6401 14.8399 12.8001 14.6666 12.9734 14.4932C13.1201 14.3466 13.3067 14.1066 13.4667 13.9199C13.6267 13.7332 13.6934 13.5866 13.8001 13.3732C13.9067 13.1466 13.8534 12.9599 13.7734 12.7999C13.6934 12.6399 13.0267 11.0132 12.7601 10.3466C12.4934 9.70658 12.2134 9.78658 12.0134 9.77324H11.3734C11.1467 9.77324 10.8001 9.85324 10.4934 10.1866C10.2001 10.5199 9.34673 11.3199 9.34673 12.9466C9.34673 14.5732 10.5334 16.1466 10.6934 16.3599C10.8534 16.5866 13.0267 19.9199 16.3334 21.3466C17.1201 21.6932 17.7334 21.8932 18.2134 22.0399C19.0001 22.2932 19.7201 22.2532 20.2934 22.1732C20.9334 22.0799 22.2534 21.3732 22.5201 20.5999C22.8001 19.8266 22.8001 19.1732 22.7067 19.0266C22.6134 18.8799 22.4134 18.8132 22.0801 18.6532Z" fill="currentColor"></path>
  </symbol>
</svg>